<svg width="53" height="53" viewBox="0 0 53 53" fill="none" xmlns="http://www.w3.org/2000/svg">
<g id="Github" clip-path="url(#clip0_7_1575)">
<path id="Vector" fill-rule="evenodd" clip-rule="evenodd" d="M26.4605 1.104C20.3192 1.10727 14.3793 3.33543 9.70294 7.39008C5.02655 11.4447 1.91859 17.0614 0.934788 23.2359C-0.0490093 29.4104 1.1555 35.74 4.33296 41.0929C7.51042 46.4458 12.4536 50.473 18.2787 52.4543C19.5638 52.6987 20.0478 51.8827 20.0478 51.189C20.0478 50.4953 20.0221 48.4838 20.0135 46.2848C12.817 47.8773 11.2963 43.1738 11.2963 43.1738C10.1226 40.1196 8.42623 39.3168 8.42623 39.3168C6.07878 37.6849 8.60188 37.7155 8.60188 37.7155C11.2021 37.9031 12.5686 40.4338 12.5686 40.4338C14.8732 44.461 18.6213 43.296 20.0949 42.6153C20.3262 40.9093 20.9988 39.7487 21.7399 39.0899C15.9912 38.4267 9.95122 36.1666 9.95122 26.0701C9.91559 23.4517 10.8695 20.9195 12.6157 18.9974C12.3501 18.3342 11.4633 15.6552 12.8684 12.0163C12.8684 12.0163 15.0402 11.3095 19.9836 14.7171C24.2237 13.5361 28.6973 13.5361 32.9374 14.7171C37.8764 11.3095 40.044 12.0163 40.044 12.0163C41.4533 15.6465 40.5666 18.3255 40.301 18.9974C42.0527 20.9198 43.0086 23.4564 42.9697 26.0789C42.9697 36.1971 36.9169 38.4267 31.1596 39.0768C32.0849 39.8971 32.9117 41.4984 32.9117 43.9592C32.9117 47.4847 32.8817 50.3207 32.8817 51.189C32.8817 51.8915 33.3486 52.7118 34.6594 52.4543C40.4851 50.4727 45.4288 46.4449 48.6062 41.091C51.7836 35.7372 52.9875 29.4067 52.0026 23.2316C51.0177 17.0566 47.9082 11.4398 43.2302 7.38584C38.5523 3.3319 32.611 1.1052 26.469 1.104H26.4605Z" fill="#191717"/>
<path id="Vector_2" d="M10.3876 38.9374C10.332 39.0683 10.1263 39.1076 9.95927 39.0159C9.79221 38.9243 9.668 38.7541 9.72797 38.6189C9.78794 38.4836 9.98927 38.4487 10.1563 38.5403C10.3234 38.632 10.4519 38.8065 10.3876 38.9374Z" fill="#191717"/>
<path id="Vector_3" d="M11.4372 40.1283C11.3485 40.1739 11.247 40.1866 11.1501 40.1643C11.0532 40.142 10.9669 40.0861 10.906 40.0062C10.7389 39.8229 10.7047 39.5699 10.8332 39.4564C10.9617 39.343 11.193 39.3953 11.3601 39.5786C11.5271 39.7618 11.5657 40.0149 11.4372 40.1283Z" fill="#191717"/>
<path id="Vector_4" d="M12.4567 41.6425C12.2982 41.756 12.0283 41.6425 11.8784 41.4156C11.8369 41.3749 11.804 41.3261 11.7815 41.2722C11.7589 41.2182 11.7473 41.1601 11.7473 41.1015C11.7473 41.0428 11.7589 40.9848 11.7815 40.9308C11.804 40.8768 11.8369 40.828 11.8784 40.7873C12.0369 40.6783 12.3068 40.7873 12.4567 41.0099C12.6066 41.2324 12.6109 41.5291 12.4567 41.6425Z" fill="#191717"/>
<path id="Vector_5" d="M13.8402 43.1086C13.6989 43.27 13.4119 43.2264 13.1763 43.0082C12.9407 42.7901 12.885 42.4934 13.0263 42.3363C13.1677 42.1792 13.4547 42.2229 13.6989 42.4367C13.943 42.6505 13.9902 42.9515 13.8402 43.1086Z" fill="#191717"/>
<path id="Vector_6" d="M15.7806 43.9639C15.7163 44.1689 15.425 44.2606 15.1338 44.1733C14.8425 44.086 14.6497 43.8417 14.7054 43.6323C14.7611 43.4228 15.0566 43.3268 15.3522 43.4228C15.6478 43.5188 15.8363 43.7501 15.7806 43.9639Z" fill="#191717"/>
<path id="Vector_7" d="M17.8971 44.1121C17.8971 44.3259 17.6572 44.5091 17.3488 44.5135C17.0403 44.5178 16.7876 44.3433 16.7876 44.1295C16.7876 43.9157 17.0275 43.7325 17.3359 43.7281C17.6443 43.7237 17.8971 43.8939 17.8971 44.1121Z" fill="#191717"/>
<path id="Vector_8" d="M19.8675 43.7761C19.906 43.9899 19.6918 44.2124 19.3834 44.2647C19.075 44.3171 18.8051 44.1906 18.7666 43.9811C18.728 43.7717 18.9507 43.5448 19.2506 43.4881C19.5505 43.4314 19.8289 43.5623 19.8675 43.7761Z" fill="#191717"/>
</g>
<defs>
<clipPath id="clip0_7_1575">
<rect width="51.7381" height="53" fill="white" transform="translate(0.59082)"/>
</clipPath>
</defs>
</svg>
