<svg width="24" height="24" viewBox="0 0 24 24" fill="none" xmlns="http://www.w3.org/2000/svg">
<g id="Group">
<path id="Vector" d="M4.60117 21.2887C5.34577 20.5441 5.34577 19.3363 4.60117 18.5917C3.85657 17.8471 2.64877 17.8471 1.90417 18.5917C1.15957 19.3363 0.545166 22.6483 0.545166 22.6483C0.545166 22.6483 3.85657 22.0339 4.60177 21.2893L4.60117 21.2887Z" fill="#FF3D29"/>
<path id="Vector_2" d="M7.59261 20.88L2.31501 15.6024C2.13981 15.4272 2.20041 15.1308 2.42961 15.0378L4.85601 14.0532L9.15561 18.3528L8.15601 20.7678C8.06181 20.9952 7.76721 21.054 7.59261 20.88Z" fill="#8595AA"/>
<path id="Vector_3" d="M19.9131 5.86557L16.2291 21.5328C15.8433 23.1738 13.8057 23.7534 12.6141 22.5612L0.631465 10.578C-0.560135 9.38637 0.0194648 7.34877 1.65986 6.96297L17.3271 3.27897C18.8823 2.91357 20.2791 4.31037 19.9137 5.86557H19.9131Z" fill="#8595AA"/>
<path id="Vector_4" d="M20.3571 2.83536C21.9222 4.40047 21.9218 6.94138 20.3571 8.50607L9.45562 19.4075L3.78491 13.7368L14.6864 2.83536C16.2515 1.27025 18.7924 1.27067 20.3571 2.83536Z" fill="#D0D6DE"/>
<path id="Vector_5" d="M16.619 8.88129C17.8938 8.88129 18.9272 7.84788 18.9272 6.57309C18.9272 5.29831 17.8938 4.26489 16.619 4.26489C15.3442 4.26489 14.3108 5.29831 14.3108 6.57309C14.3108 7.84788 15.3442 8.88129 16.619 8.88129Z" fill="#6BA0FF"/>
</g>
</svg>
